<?xml version="1.0" standalone="no"?>
<!DOCTYPE svg PUBLIC "-//W3C//DTD SVG 20010904//EN"
 "http://www.w3.org/TR/2001/REC-SVG-20010904/DTD/svg10.dtd">
<svg version="1.0" xmlns="http://www.w3.org/2000/svg"
 width="256.000000pt" height="72.000000pt" viewBox="0 0 256.000000 72.000000"
 preserveAspectRatio="xMidYMid meet">

<g transform="translate(0.000000,72.000000) scale(0.100000,-0.100000)"
fill="#000000" stroke="none">
<path d="M182 523 c-87 -43 -115 -175 -53 -261 43 -61 133 -79 202 -40 43 24
47 37 23 73 -15 23 -18 24 -44 10 -55 -28 -101 -15 -118 35 -28 79 50 141 117
94 23 -16 25 -16 42 7 26 34 20 59 -21 80 -42 23 -104 24 -148 2z"/>
<path d="M1200 365 l0 -165 45 0 45 0 0 134 c0 73 3 148 6 165 l7 31 -52 0
-51 0 0 -165z"/>
<path d="M692 508 c-28 -28 -3 -72 39 -66 30 4 47 33 33 56 -14 21 -55 27 -72
10z"/>
<path d="M428 401 c-30 -27 -33 -35 -33 -86 0 -51 3 -59 33 -86 36 -33 71 -37
107 -13 23 15 25 15 25 0 0 -12 10 -16 38 -16 l39 0 -1 110 -1 110 -29 6 c-19
4 -31 2 -37 -7 -7 -11 -12 -12 -29 -1 -34 21 -77 14 -112 -17z m120 -53 c7 -7
12 -21 12 -33 0 -40 -50 -61 -78 -33 -28 28 -7 78 33 78 12 0 26 -5 33 -12z"/>
<path d="M858 414 c-76 -41 -74 -159 2 -199 81 -42 180 13 180 100 0 88 -102
143 -182 99z m92 -68 c28 -35 -11 -93 -47 -70 -36 22 -23 84 17 84 10 0 23 -7
30 -14z"/>
<path d="M1360 423 l-25 -4 3 -109 3 -110 45 0 45 0 -6 44 c-10 63 0 86 36 86
28 0 29 2 29 45 0 48 -11 56 -50 35 -13 -7 -19 -6 -24 5 -5 15 -9 15 -56 8z"/>
<path d="M1568 415 c-15 -9 -35 -29 -43 -45 -54 -105 51 -202 174 -159 33 12
37 20 21 50 -9 15 -15 17 -30 9 -26 -14 -73 -13 -89 3 -10 10 3 14 61 22 69 9
73 12 76 37 2 18 -6 37 -25 58 -35 39 -101 50 -145 25z m82 -55 c19 -12 10
-20 -35 -27 -36 -6 -37 -5 -26 16 12 22 36 27 61 11z"/>
<path d="M1793 423 c-22 -4 -23 -8 -23 -114 l0 -109 40 0 39 0 3 71 c3 75 17
99 52 86 13 -5 16 -21 16 -82 l0 -75 40 0 40 0 0 99 c0 92 -2 101 -22 115 -28
20 -61 20 -98 1 -27 -14 -30 -14 -30 0 0 15 -13 17 -57 8z"/>
<path d="M2088 414 c-76 -41 -74 -159 2 -199 81 -42 180 13 180 100 0 88 -102
143 -182 99z m92 -68 c28 -35 -11 -93 -47 -70 -36 22 -23 84 17 84 10 0 23 -7
30 -14z"/>
<path d="M680 310 l0 -110 45 0 45 0 0 110 0 110 -45 0 -45 0 0 -110z"/>
</g>
</svg>
